DBRep_DrawableShape

CASCADE Topology V3, (c) Open Cascade
Locations 0
Curve2ds 30
8 0 40
1 6.2831853071795862 0 0 1 
1 0 0 0 1 
1 0 0 1 0 
2 3.9069718072554948e-16 -4.9564344165004988e-16 1 0 -0 1 7
1 0 40 1 0 
8 0 6.2831853071795862
1 0 9.4247779607693793 -0 -1 
1 0 0 1 0 
2 2.7348802650788469e-16 -3.4286825315787712e-16 1 0 -0 1 5
2 3.9069718072554948e-16 -4.9564344165004988e-16 1 0 -0 1 5
8 0 3.1415926535897931
1 0 3.1415926535897931 1 0 
1 0 9.4247779607693793 1 0 
1 3.1415926535897931 0 0 1 
8 3.1415926535897931 9.4247779607693793
1 9.4247779607693793 0 -1 -0 
8 0 40
1 6.2831853071795862 0 0 1 
1 0 0 0 1 
1 0 40 1 0 
8 0 6.2831853071795862
1 0 9.4247779607693793 -0 -1 
8 0 40
1 6.2831853071795862 0 0 1 
1 0 0 0 1 
1 0 40 1 0 
2 0 -4.9564344165005008e-16 1 0 -0 1 7
8 0 3.1415926535897931
1 0 3.1415926535897931 1 0 
1 0 9.4247779607693793 1 0 
1 3.1415926535897931 0 0 1 
8 3.1415926535897931 9.4247779607693793
1 9.4247779607693793 0 -1 -0 
1 0 40 1 0 
2 0 -3.4286825315787712e-16 1 0 -0 1 5
2 0 -4.9564344165005008e-16 1 0 -0 1 5
8 0 40
1 6.2831853071795862 0 0 1 
1 0 0 0 1 
Curves 14
1 7 0 0 0 0 1 
2 0 0 0 0 0 1 1 0 -0 -0 1 0 7
2 0 0 40 0 0 1 1 0 -0 -0 1 0 7
2 0 0 0 0 0 1 1 0 -0 -0 1 0 5
2 15 2.5717582782094417e-15 40 0 1 -0 -1 0 0 0 0 1 8
2 30 0 40 -1.2246467991473532e-16 0 1 1 0 1.2246467991473532e-16 0 1 -0 7
1 5 0 0 0 0 1 
2 0 0 40 0 0 1 1 0 -0 -0 1 0 5
1 23 0 40 0 0 -1 
2 30 0 0 0 0 -1 -1 0 0 0 1 0 7
2 15 1.8369701987210296e-15 40 0 1 -0 -1 0 0 0 0 1 10
2 30 0 40 -1.2246467991473532e-16 0 1 1 0 1.2246467991473532e-16 0 1 -0 5
2 30 0 0 0 0 -1 -1 0 0 0 1 0 5
1 25 0 40 0 0 -1 
Polygon3D 0
PolygonOnTriangulations 0
Surfaces 10
10 0 6.2831853071795862 0 40
2 0 0 0 0 0 1 1 0 -0 -0 1 0 7
1 -3.9069718072554948e-16 4.9564344165004988e-16 0 0 0 1 1 0 -0 -0 1 0 
10 0 3.1415926535897931 3.1415926535897931 9.4247779607693793
5 15 0 40 0 1 -0 -1 0 0 0 0 1 15 7
10 0 6.2831853071795862 0 40
2 0 0 0 0 0 1 1 0 -0 -0 1 0 5
1 -2.7348802650788469e-16 3.4286825315787712e-16 0 0 0 1 1 0 -0 -0 1 0 
10 0 6.2831853071795862 0 40
2 30 0 40 0 0 -1 -1 0 0 0 1 0 7
10 0 3.1415926535897931 3.1415926535897931 9.4247779607693793
5 15 0 40 0 1 -0 -1 0 0 0 0 1 15 5
1 30 4.9564344165005008e-16 0 -0 -0 -1 -1 0 0 0 1 -0 
10 0 6.2831853071795862 0 40
2 30 0 40 0 0 -1 -1 0 0 0 1 0 5
1 30 3.4286825315787712e-16 0 -0 -0 -1 -1 0 0 0 1 -0 
Triangulations 0

TShapes 52
Ve
1e-07
7 -1.71450551880629e-15 0
0 0

0101101
*
Ve
1e-07
7 0 40
0 0

0101101
*
Ed
 1e-07 1 1 0
1  1 0 0 40
3  1 2G1 1 0 0 40
0

0101000
+52 0 -51 0 *
Ed
 1e-07 1 1 0
1  2 0 0 6.28318530717959
2  3 1 0 0 6.28318530717959
2  4 2 0 0 6.28318530717959
0

0101000
+52 0 -52 0 *
Ed
 1e-07 1 1 0
1  3 0 0 6.28318530717959
2  5 1 0 0 6.28318530717959
2  6 3 0 0 6.28318530717959
4 G1 3 0 1 0
0

0101100
+51 0 -51 0 *
Wi

0101100
+50 0 +49 0 -50 0 -48 0 *
Fa
0  1e-07 1 0

0101000
+47 0 *
Wi

0101100
+49 0 *
Ve
1e-07
5 -1.22464679914735e-15 0
0 0

0101101
*
Ed
 1e-07 1 1 0
1  4 0 0 6.28318530717959
2  7 4 0 0 6.28318530717959
2  8 5 0 0 6.28318530717959
2  9 2 0 0 6.28318530717959
0

0101000
+44 0 -44 0 *
Wi

0101100
-43 0 *
Fa
0  1e-07 2 0

0101000
+45 0 +42 0 *
Ve
1e-07
23 0 40
0 0

0101101
*
Ed
 1e-07 1 1 0
1  5 0 0 3.14159265358979
3  10 11G1 3 0 0 3.14159265358979
0

0101000
+51 0 -40 0 *
Ed
 1e-07 1 1 0
1  6 0 3.14159265358979 9.42477796076938
2  12 3 0 3.14159265358979 9.42477796076938
2  13 6 0 3.14159265358979 9.42477796076938
4 G1 6 0 3 0
0

0101100
+40 0 -40 0 *
Wi

0101100
+39 0 +48 0 -39 0 +38 0 *
Fa
0  1e-07 3 0

0101000
+37 0 *
Ve
1e-07
5 0 40
0 0

0101101
*
Ed
 1e-07 1 1 0
1  7 0 0 40
3  14 15G1 4 0 0 40
0

0101000
+44 0 -35 0 *
Ed
 1e-07 1 1 0
1  8 0 0 6.28318530717959
2  16 4 0 0 6.28318530717959
2  17 7 0 0 6.28318530717959
4 G1 7 0 4 0
0

0101100
+35 0 -35 0 *
Wi

0101100
+34 0 +43 0 -34 0 -33 0 *
Fa
0  1e-07 4 0

0101000
+32 0 *
Ve
1e-07
23 -1.71450551880629e-15 0
0 0

0101101
*
Ed
 1e-07 1 1 0
1  9 0 0 40
3  18 19G1 6 0 0 40
0

0101000
+40 0 -30 0 *
Ed
 1e-07 1 1 0
1  10 0 0 6.28318530717959
2  20 6 0 0 6.28318530717959
2  21 8 0 0 6.28318530717959
0

0101000
+30 0 -30 0 *
Wi

0101100
+29 0 -38 0 -29 0 -28 0 *
Fa
0  1e-07 6 0

0101000
+27 0 *
Ve
1e-07
25 0 40
0 0

0101101
*
Ed
 1e-07 1 1 0
1  11 0 0 3.14159265358979
3  22 23G1 7 0 0 3.14159265358979
0

0101000
+35 0 -25 0 *
Ed
 1e-07 1 1 0
1  12 0 3.14159265358979 9.42477796076938
2  24 7 0 3.14159265358979 9.42477796076938
2  25 9 0 3.14159265358979 9.42477796076938
4 G1 9 0 7 0
0

0101100
+25 0 -25 0 *
Wi

0101100
+24 0 +33 0 -24 0 +23 0 *
Fa
0  1e-07 7 0

0101000
+22 0 *
Wi

0101100
+28 0 *
Ve
1e-07
25 -1.22464679914735e-15 0
0 0

0101101
*
Ed
 1e-07 1 1 0
1  13 0 0 6.28318530717959
2  26 9 0 0 6.28318530717959
2  27 10 0 0 6.28318530717959
2  28 8 0 0 6.28318530717959
0

0101000
+19 0 -19 0 *
Wi

0101100
-18 0 *
Fa
0  1e-07 8 0

0101000
+20 0 +17 0 *
Ed
 1e-07 1 1 0
1  14 0 0 40
3  29 30G1 9 0 0 40
0

0101000
+25 0 -19 0 *
Wi

0101100
+15 0 -23 0 -15 0 -18 0 *
Fa
0  1e-07 9 0

0101000
+14 0 *
Sh

0101100
+46 0 -41 0 +36 0 -31 0 +26 0 -21 0 +16 0 -13 0 *
So

0100000
+12 0 *
Co

0100000
+11 0 *
Co

0100000
+10 0 *
Wi

0101100
+43 0 *
Fa
0  1e-07 5 0

0101000
+8 0 *
Wi

0101100
+18 0 *
Fa
0  1e-07 10 0

0101000
+6 0 *
Sh

0101100
+31 0 +21 0 +13 0 -7 0 +5 0 *
So

0100100
+4 0 *
Co

0100000
+3 0 *
Co

1100000
+9 0 +2 0 *

+1 0 