<?xml version="1.0" encoding="UTF-8"?>
<svg id="Layer_1" xmlns="http://www.w3.org/2000/svg" version="1.1" viewBox="0 0 243.6 76.59">
  <!-- Generator: Adobe Illustrator 29.8.1, SVG Export Plug-In . SVG Version: 2.1.1 Build 2)  -->
  <defs>
    <style>
      .st0 {
        fill: #6b6869;
      }

      .st1 {
        fill: #fff;
      }
    </style>
  </defs>
  <g>
    <path class="st1" d="M105.09,24.46h-11.65c-.91,0-1.56.19-1.96.57-.39.38-.59.99-.59,1.84v5.56h12.45v5.23h-12.45v13.67h-7.21v-25.93c0-2.08.65-3.72,1.96-4.93,1.3-1.21,3.04-1.82,5.21-1.82,6.91,0,11.79.17,14.62.52l-.38,5.28h0Z"/>
    <path class="st1" d="M131.53,45.72l.33,5.28c-2.96.31-7.98.47-15.09.47-2.17,0-3.9-.59-5.19-1.77s-1.95-2.77-1.98-4.79v-19.71c.03-2.01.69-3.61,1.98-4.78,1.29-1.18,3.02-1.77,5.19-1.77,7.1,0,12.13.16,15.09.47l-.33,5.33h-12.49c-.79,0-1.35.19-1.7.57s-.52.99-.52,1.84v4.95h12.97v5.19h-12.97v6.27c0,.88.17,1.51.52,1.89s.91.57,1.7.57h12.49Z"/>
    <path class="st1" d="M149.07,39.02l-6.55-2.31c-2.42-.88-4.15-2.07-5.19-3.58s-1.56-3.49-1.56-5.94c0-3.58.87-5.98,2.62-7.19,1.74-1.21,4.82-1.82,9.22-1.82,4.15,0,7.72.42,10.7,1.27l-.47,4.9c-2.73-.09-6.13-.14-10.18-.14-1.89,0-3.14.17-3.77.5s-.94,1.16-.94,2.48c0,1.07.24,1.84.71,2.31s1.37.93,2.69,1.37l6.18,2.12c2.51.88,4.29,2.08,5.33,3.61,1.04,1.52,1.56,3.51,1.56,5.96,0,3.65-.88,6.12-2.64,7.43s-4.9,1.96-9.43,1.96c-3.68,0-7.4-.41-11.17-1.23l.42-5.19c6.69.16,10.28.24,10.75.24,1.92,0,3.2-.2,3.84-.61s.97-1.26.97-2.55c0-1.1-.22-1.88-.66-2.33-.44-.46-1.24-.87-2.4-1.25h-.03Z"/>
    <path class="st1" d="M188.68,24.64h-9.71v26.69h-7.21v-26.69h-9.71v-5.85h26.64v5.85h0Z"/>
    <path class="st1" d="M199.99,51.33h-7.17V18.8h7.17v32.53Z"/>
    <path class="st1" d="M232.71,18.8h6.93c1.73,0,2.62.9,2.69,2.69l1.27,29.84h-6.79l-1.09-26.92h-.8l-4.9,20.13c-.32,1.54-1.29,2.31-2.92,2.31h-4.71c-1.63,0-2.61-.77-2.92-2.31l-4.95-20.13h-.8l-.94,26.92h-6.79l1.18-29.84c.09-1.79.99-2.69,2.69-2.69h6.93c1.54,0,2.48.77,2.83,2.31l3.96,16.22c.25,1.04.53,2.56.85,4.57h.61c.03-.16.15-.8.35-1.93.2-1.13.37-2.01.5-2.64l3.91-16.22c.38-1.54,1.35-2.31,2.92-2.31h-.01Z"/>
  </g>
  <g>
    <path class="st1" d="M86.64,57.78h-1.4c-.11,0-.19.02-.24.07-.05.04-.07.12-.07.22v.67h1.5v.63h-1.5v1.64h-.87v-3.12c0-.25.08-.45.24-.59s.37-.22.63-.22c.83,0,1.42.02,1.76.06l-.05.63h0Z"/>
    <path class="st1" d="M88.3,61.01h-.86v-3.91h.86v3.91Z"/>
    <path class="st1" d="M92.62,57.1v3.6c0,.21-.1.31-.31.31h-.54c-.09,0-.15-.02-.2-.06-.05-.04-.1-.11-.14-.2l-1.03-2.09c-.13-.27-.21-.48-.24-.61h-.06c.03.19.04.4.04.62v2.32h-.82v-3.6c0-.21.1-.31.31-.31h.53c.09,0,.15.02.2.06.05.04.1.11.14.2l.99,2.02c.09.19.19.4.28.63h.06c-.02-.29-.03-.51-.03-.66v-2.25h.82v.02Z"/>
    <path class="st1" d="M94.5,61.01h-.86v-3.91h.86v3.91Z"/>
    <path class="st1" d="M98.42,57.81h-1.17v3.21h-.87v-3.21h-1.17v-.7h3.2v.7h.01Z"/>
    <path class="st1" d="M101.75,60.34l.04.63c-.36.04-.96.06-1.81.06-.26,0-.47-.07-.62-.21s-.23-.33-.24-.57v-2.37c0-.24.08-.43.24-.57.16-.14.36-.21.62-.21.85,0,1.46.02,1.81.06l-.04.64h-1.5c-.09,0-.16.02-.2.07-.04.04-.06.12-.06.22v.59h1.56v.62h-1.56v.75c0,.11.02.18.06.23s.11.07.2.07h1.5Z"/>
    <path class="st1" d="M106.69,60.34l.04.63c-.36.04-.96.06-1.81.06-.26,0-.47-.07-.62-.21s-.23-.33-.24-.57v-2.37c0-.24.08-.43.24-.57.16-.14.36-.21.62-.21.85,0,1.46.02,1.81.06l-.04.64h-1.5c-.09,0-.16.02-.2.07-.04.04-.06.12-.06.22v.59h1.56v.62h-1.56v.75c0,.11.02.18.06.23s.11.07.2.07h1.5Z"/>
    <path class="st1" d="M108.43,57.1v2.92c0,.1.02.18.07.22s.13.07.24.07h1.34l.04.66c-.38.04-.93.06-1.65.06-.3,0-.53-.08-.67-.23-.15-.15-.22-.35-.22-.61v-3.09h.86,0Z"/>
    <path class="st1" d="M113.42,60.34l.04.63c-.36.04-.96.06-1.81.06-.26,0-.47-.07-.62-.21s-.23-.33-.24-.57v-2.37c0-.24.08-.43.24-.57.16-.14.36-.21.62-.21.85,0,1.46.02,1.81.06l-.04.64h-1.5c-.09,0-.16.02-.2.07-.04.04-.06.12-.06.22v.59h1.56v.62h-1.56v.75c0,.11.02.18.06.23s.11.07.2.07h1.5Z"/>
    <path class="st1" d="M117.45,57.1h.83c.21,0,.32.11.32.32l.15,3.59h-.82l-.13-3.23h-.1l-.59,2.42c-.04.19-.16.28-.35.28h-.57c-.2,0-.31-.09-.35-.28l-.59-2.42h-.1l-.11,3.23h-.82l.14-3.59c.01-.21.12-.32.32-.32h.83c.18,0,.3.09.34.28l.48,1.95c.03.13.06.31.1.55h.07s.02-.1.04-.23c.02-.14.04-.24.06-.32l.47-1.95c.05-.19.16-.28.35-.28h.03Z"/>
    <path class="st1" d="M122.3,60.34l.04.63c-.36.04-.96.06-1.81.06-.26,0-.47-.07-.62-.21s-.23-.33-.24-.57v-2.37c0-.24.08-.43.24-.57.16-.14.36-.21.62-.21.85,0,1.46.02,1.81.06l-.04.64h-1.5c-.09,0-.16.02-.2.07-.04.04-.06.12-.06.22v.59h1.56v.62h-1.56v.75c0,.11.02.18.06.23s.11.07.2.07h1.5Z"/>
    <path class="st1" d="M126.49,57.1v3.6c0,.21-.1.31-.31.31h-.54c-.09,0-.15-.02-.2-.06-.05-.04-.09-.11-.14-.2l-1.03-2.09c-.13-.27-.21-.48-.24-.61h-.06c.03.19.04.4.04.62v2.32h-.82v-3.6c0-.21.1-.31.31-.31h.53c.09,0,.15.02.2.06.05.04.1.11.14.2l.99,2.02c.09.19.19.4.28.63h.06c-.02-.29-.03-.51-.03-.66v-2.25h.82v.02Z"/>
    <path class="st1" d="M130.41,57.81h-1.17v3.21h-.87v-3.21h-1.17v-.7h3.2v.7h0Z"/>
    <path class="st1" d="M133.91,59.54l-.79-.28c-.29-.11-.5-.25-.62-.43s-.19-.42-.19-.71c0-.43.11-.72.31-.86.21-.15.58-.22,1.11-.22.5,0,.93.05,1.29.15l-.06.59c-.33,0-.74-.02-1.22-.02-.23,0-.38.02-.45.06-.07.04-.11.14-.11.3,0,.13.03.22.08.28.06.06.17.11.32.16l.74.25c.3.11.52.25.64.43.13.18.19.42.19.72,0,.44-.11.74-.32.89s-.59.23-1.13.23c-.44,0-.89-.05-1.34-.15l.05-.62c.8.02,1.23.03,1.29.03.23,0,.38-.03.46-.07.08-.05.12-.15.12-.31,0-.13-.03-.23-.08-.28s-.15-.11-.29-.15h0Z"/>
    <path class="st1" d="M136.85,61.01h-.86v-3.91h.86v3.91Z"/>
    <path class="st1" d="M141.01,57.1h.83c.21,0,.32.11.32.32l.15,3.59h-.82l-.13-3.23h-.1l-.59,2.42c-.04.19-.16.28-.35.28h-.57c-.2,0-.31-.09-.35-.28l-.59-2.42h-.1l-.11,3.23h-.82l.14-3.59c0-.21.12-.32.32-.32h.83c.18,0,.3.09.34.28l.48,1.95c.03.13.06.31.1.55h.07s.02-.1.04-.23c.02-.14.04-.24.06-.32l.47-1.95c.05-.19.16-.28.35-.28h.03Z"/>
    <path class="st1" d="M146.36,57.1v2.35c0,.6-.12,1.02-.34,1.26-.23.25-.62.37-1.18.37-.59,0-1-.12-1.24-.37-.24-.24-.36-.67-.36-1.26v-2.35h.86v2.35c0,.36.05.6.15.74.1.13.28.2.55.2s.45-.07.55-.2.15-.38.15-.74v-2.35h.87,0Z"/>
    <path class="st1" d="M148.19,57.1v2.92c0,.1.02.18.07.22s.13.07.24.07h1.34l.04.66c-.38.04-.93.06-1.65.06-.3,0-.53-.08-.67-.23-.15-.15-.22-.35-.22-.61v-3.09h.86-.01Z"/>
    <path class="st1" d="M152.7,59.99h-1.34l-.28,1.02h-.88l1.13-3.68c.02-.07.05-.12.11-.16s.12-.06.19-.06h.82c.16,0,.26.08.3.23l1.13,3.68h-.88l-.28-1.02h-.02ZM152.51,59.32l-.33-1.19c-.05-.19-.07-.31-.08-.37h-.15s-.02.1-.04.18c-.02.08-.03.15-.05.19l-.33,1.19h.98Z"/>
    <path class="st1" d="M157.07,57.81h-1.17v3.21h-.87v-3.21h-1.17v-.7h3.2v.7h0Z"/>
    <path class="st1" d="M158.65,61.01h-.86v-3.91h.86v3.91Z"/>
    <path class="st1" d="M159.91,57.46c.24-.29.68-.43,1.31-.43s1.06.14,1.31.43.37.82.37,1.59-.12,1.31-.37,1.59c-.24.29-.68.43-1.31.43s-1.06-.14-1.31-.43-.37-.82-.37-1.59.12-1.31.37-1.59ZM161.82,58.01c-.11-.19-.31-.28-.6-.28s-.5.09-.6.28c-.11.18-.16.54-.16,1.05s.05.87.16,1.05c.11.19.31.28.6.28s.5-.09.6-.28c.11-.18.16-.54.16-1.05s-.05-.87-.16-1.05Z"/>
    <path class="st1" d="M167.07,57.1v3.6c0,.21-.1.31-.31.31h-.54c-.09,0-.16-.02-.2-.06-.05-.04-.1-.11-.14-.2l-1.03-2.09c-.13-.27-.21-.48-.24-.61h-.06c.03.19.04.4.04.62v2.32h-.82v-3.6c0-.21.1-.31.31-.31h.53c.09,0,.16.02.2.06.05.04.1.11.14.2l.99,2.02c.09.19.19.4.28.63h.06c-.02-.29-.03-.51-.03-.66v-2.25h.81v.02Z"/>
    <path class="st1" d="M169.78,57.46c.24-.29.68-.43,1.31-.43s1.06.14,1.31.43.37.82.37,1.59-.12,1.31-.37,1.59c-.24.29-.68.43-1.31.43s-1.06-.14-1.31-.43-.37-.82-.37-1.59.12-1.31.37-1.59ZM171.69,58.01c-.11-.19-.31-.28-.6-.28s-.5.09-.6.28c-.11.18-.16.54-.16,1.05s.05.87.16,1.05c.11.19.31.28.6.28s.5-.09.6-.28c.11-.18.16-.54.16-1.05s-.05-.87-.16-1.05Z"/>
    <path class="st1" d="M176.21,57.78h-1.4c-.11,0-.19.02-.23.07-.05.04-.07.12-.07.22v.67h1.5v.63h-1.5v1.64h-.87v-3.12c0-.25.08-.45.23-.59s.37-.22.63-.22c.83,0,1.42.02,1.76.06l-.04.63h-.01Z"/>
    <path class="st1" d="M181.15,57.81h-1.17v3.21h-.87v-3.21h-1.17v-.7h3.2v.7h0Z"/>
    <path class="st1" d="M184.96,61.01h-.91l-.3-1.2c-.04-.12-.09-.21-.15-.26s-.15-.07-.27-.07h-.61v1.52h-.85v-3.91c.35-.03.85-.05,1.49-.05.52,0,.9.08,1.12.25s.33.47.33.91c0,.29-.06.51-.17.67s-.31.26-.57.3v.03c.3.07.48.26.56.59l.34,1.22h0ZM182.73,58.82h.62c.23,0,.38-.04.46-.12.08-.08.12-.22.12-.44s-.04-.36-.12-.44c-.08-.08-.24-.11-.47-.11h-.62v1.11h0Z"/>
    <path class="st1" d="M186.61,61.01h-.86v-3.91h.86v3.91Z"/>
    <path class="st1" d="M190.53,57.81h-1.17v3.21h-.87v-3.21h-1.17v-.7h3.2v.7h0Z"/>
    <path class="st1" d="M192.12,61.01h-.86v-3.91h.86v3.91Z"/>
    <path class="st1" d="M196.24,57.1v2.35c0,.6-.12,1.02-.34,1.26-.23.25-.62.37-1.18.37-.59,0-1-.12-1.24-.37-.24-.24-.36-.67-.36-1.26v-2.35h.86v2.35c0,.36.05.6.15.74.1.13.28.2.55.2s.45-.07.55-.2.15-.38.15-.74v-2.35h.87,0Z"/>
    <path class="st1" d="M200.36,57.1h.83c.21,0,.32.11.32.32l.15,3.59h-.82l-.13-3.23h-.1l-.59,2.42c-.04.19-.16.28-.35.28h-.57c-.2,0-.31-.09-.35-.28l-.59-2.42h-.1l-.11,3.23h-.82l.14-3.59c0-.21.12-.32.32-.32h.83c.18,0,.3.09.34.28l.48,1.95c.03.13.06.31.1.55h.07s.02-.1.04-.23c.02-.14.04-.24.06-.32l.47-1.95c.05-.19.16-.28.35-.28h.03Z"/>
    <path class="st1" d="M204.93,61.01h-.86v-3.91h.86v3.91Z"/>
    <path class="st1" d="M209.24,57.1v3.6c0,.21-.1.31-.31.31h-.54c-.09,0-.16-.02-.2-.06-.05-.04-.1-.11-.14-.2l-1.03-2.09c-.13-.27-.21-.48-.24-.61h-.06c.03.19.04.4.04.62v2.32h-.82v-3.6c0-.21.1-.31.31-.31h.53c.09,0,.16.02.2.06.05.04.1.11.14.2l.99,2.02c.09.19.19.4.28.63h.06c-.02-.29-.03-.51-.03-.66v-2.25h.81v.02Z"/>
    <path class="st1" d="M214.86,57.1h.83c.21,0,.32.11.32.32l.15,3.59h-.82l-.13-3.23h-.1l-.59,2.42c-.04.19-.16.28-.35.28h-.57c-.2,0-.31-.09-.35-.28l-.59-2.42h-.1l-.11,3.23h-.82l.14-3.59c0-.21.12-.32.32-.32h.83c.18,0,.3.09.34.28l.48,1.95c.03.13.06.31.1.55h.07s.02-.1.04-.23c.02-.14.04-.24.06-.32l.47-1.95c.05-.19.16-.28.35-.28h.03Z"/>
    <path class="st1" d="M219.22,59.99h-1.34l-.28,1.02h-.88l1.13-3.68c.02-.07.05-.12.11-.16s.12-.06.19-.06h.82c.16,0,.26.08.3.23l1.13,3.68h-.88l-.28-1.02h-.02ZM219.04,59.32l-.33-1.19c-.05-.19-.07-.31-.08-.37h-.15s-.02.1-.04.18c-.02.08-.03.15-.05.19l-.33,1.19h.98Z"/>
    <path class="st1" d="M223.59,57.81h-1.17v3.21h-.87v-3.21h-1.17v-.7h3.2v.7h0Z"/>
    <path class="st1" d="M226.92,60.34l.04.63c-.36.04-.96.06-1.81.06-.26,0-.47-.07-.62-.21s-.23-.33-.24-.57v-2.37c0-.24.08-.43.24-.57s.36-.21.62-.21c.85,0,1.46.02,1.81.06l-.04.64h-1.5c-.09,0-.16.02-.2.07-.04.04-.06.12-.06.22v.59h1.56v.62h-1.56v.75c0,.11.02.18.06.23s.11.07.2.07h1.5Z"/>
    <path class="st1" d="M230.89,61.01h-.91l-.3-1.2c-.04-.12-.09-.21-.15-.26s-.15-.07-.27-.07h-.61v1.52h-.85v-3.91c.35-.03.85-.05,1.49-.05.52,0,.9.08,1.12.25s.33.47.33.91c0,.29-.06.51-.17.67s-.31.26-.57.3v.03c.3.07.48.26.56.59l.34,1.22h0ZM228.65,58.82h.62c.23,0,.38-.04.46-.12.08-.08.12-.22.12-.44s-.04-.36-.12-.44c-.08-.08-.24-.11-.47-.11h-.62v1.11h0Z"/>
    <path class="st1" d="M232.54,61.01h-.86v-3.91h.86v3.91Z"/>
    <path class="st1" d="M235.67,59.99h-1.34l-.28,1.02h-.88l1.13-3.68c.02-.07.05-.12.11-.16s.12-.06.19-.06h.82c.16,0,.26.08.3.23l1.13,3.68h-.88l-.28-1.02h-.02ZM235.49,59.32l-.33-1.19c-.05-.19-.07-.31-.08-.37h-.15s-.02.1-.04.18c-.02.08-.03.15-.05.19l-.33,1.19h.98Z"/>
    <path class="st1" d="M238.31,57.1v2.92c0,.1.02.18.07.22s.13.07.24.07h1.34l.04.66c-.38.04-.93.06-1.65.06-.3,0-.53-.08-.67-.23-.15-.15-.22-.35-.22-.61v-3.09h.86-.01Z"/>
    <path class="st1" d="M242.15,59.54l-.79-.28c-.29-.11-.5-.25-.62-.43s-.19-.42-.19-.71c0-.43.11-.72.32-.86.21-.15.58-.22,1.11-.22.5,0,.93.05,1.29.15l-.06.59c-.33,0-.74-.02-1.22-.02-.23,0-.38.02-.45.06-.07.04-.11.14-.11.3,0,.13.03.22.08.28s.16.11.32.16l.74.25c.3.11.52.25.64.43.13.18.19.42.19.72,0,.44-.11.74-.32.89s-.59.23-1.13.23c-.44,0-.89-.05-1.34-.15l.05-.62c.8.02,1.23.03,1.29.03.23,0,.38-.03.46-.07.08-.05.12-.15.12-.31,0-.13-.03-.23-.08-.28s-.15-.11-.29-.15h-.01Z"/>
  </g>
  <path class="st1" d="M21.75,76.59c6.77-7.09,9.91-16.54,6.26-25.98-5.25-13.59-23.05-22.14-15.77-38.99C14.34,6.75,18.64,3.19,22.67,0c-2.67,17.35,16.93,26.16,20.66,40.85,4.15,16.36-6.83,30.18-21.58,35.73h0Z"/>
  <path class="st0" d="M36.02.64c-2.44,0-4.82.24-7.13.68-.92,7.15,3.77,12.75,9.2,19.21,4.66,5.54,9.47,11.28,11.38,18.77,3.54,13.95-1.92,27.7-13.6,36.65h.16c20.8,0,37.65-16.86,37.65-37.65S56.82.64,36.02.64Z"/>
  <path class="st1" d="M5.5,24.14c2.26,15.29,23.57,24.11,16.94,41.31-.92,2.39-5.11,8.38-7.43,9.28-.84.33-.6-.3-.73-.63C7.36,56.72-6.07,48.34,3.1,27.53c.35-.79.94-2.14,1.37-2.8.29-.45-.05-.83,1.04-.6h0Z"/>
</svg>